<?xml version="1.0" encoding="UTF-8"?>
<svg xmlns="http://www.w3.org/2000/svg" width="1000" height="800" viewBox="0 0 1000 800">
  <defs>
    <style>
      .name { font-family: monospace; font-size: 12px; }
      .sector { font-family: monospace; font-size: 12px; fill: #7c3aed; font-weight: bold; }
      .title { font-family: monospace; font-size: 14px; fill: #111827; font-weight: bold; }
      .sub { font-family: monospace; font-size: 11px; fill: #6b7280; }
    </style>
  </defs>
  <rect width="1000" height="800" fill="#ffffff" />
  <polyline fill="none" stroke="#9ca3af" stroke-width="2.5" points="627.1,516.2 629.0,514.2 630.8,512.1 632.7,510.1 634.5,508.0 636.3,506.0 638.2,503.9 640.0,501.9 641.9,499.9 643.7,497.8 645.6,495.8 647.4,493.7 649.2,491.7 651.1,489.6 652.9,487.6 654.8,485.5 656.6,483.5 658.4,481.4 660.3,479.4 662.1,477.3 664.0,475.3 665.8,473.2 667.6,471.2 669.5,469.1 671.3,467.1 673.1,465.0 675.0,463.0 676.8,460.9 678.7,458.9 680.6,456.9 682.5,454.9 684.4,452.9 686.3,450.9 688.2,448.9 690.1,447.0 692.0,445.0 694.0,443.0 695.9,441.1 697.9,439.1 699.8,437.2 701.8,435.3 703.8,433.4 705.8,431.5 707.8,429.7 709.8,427.8 711.9,425.9 713.9,424.1 716.0,422.2 718.0,420.4 720.1,418.6 722.2,416.8 724.3,415.1 726.4,413.3 728.6,411.6 730.7,409.9 732.9,408.2 735.1,406.5 737.3,404.8 739.5,403.2 741.7,401.5 743.9,399.9 746.1,398.3 748.4,396.7 750.6,395.1 752.9,393.5 755.1,392.0 757.4,390.4 759.7,388.9 762.0,387.4 764.3,385.8 766.6,384.3 768.9,382.8 771.2,381.3 773.5,379.9 775.9,378.4 778.2,376.9 780.5,375.4 782.8,374.0 785.2,372.5 787.5,371.1 789.9,369.6 792.2,368.2 794.6,366.7 796.9,365.3 799.3,363.9 801.6,362.5 804.0,361.1 806.4,359.6 808.7,358.2 811.1,356.8 813.5,355.5 815.9,354.1 818.2,352.7 820.6,351.3 823.0,350.0 825.4,348.6 827.8,347.2" />
  <polyline fill="none" stroke="#ef4444" stroke-width="5" points="827.8,347.2 830.2,345.8 832.6,344.4 834.9,343.0 837.3,341.6 839.7,340.2 842.0,338.8 844.4,337.4 846.7,336.0 849.1,334.5 851.5,333.1 853.8,331.7 856.2,330.2 858.5,328.8 860.8,327.3 863.1,325.9 865.5,324.4 867.8,322.9 870.1,321.4 872.4,319.9 874.7,318.4 877.0,316.9 879.3,315.4 881.6,313.9 883.9,312.4 886.1,310.7 888.3,309.1 890.5,307.4 892.6,305.7 894.6,303.7 896.4,301.7 898.2,299.6 899.7,297.3 901.0,294.9 902.0,292.3 902.7,289.6 903.1,286.9 903.2,284.2 903.0,281.4 902.4,278.7 901.6,276.1 900.5,273.6 899.0,271.3 897.3,269.1 895.4,267.1 893.3,265.4 890.9,263.9 888.5,262.7 885.9,261.8 883.2,261.1 880.5,260.5 877.8,260.2 875.0,260.1 872.3,260.0 869.5,259.9 866.8,259.8 864.0,259.6 861.3,259.3" />
  <polyline fill="none" stroke="#f97316" stroke-width="5" points="861.3,259.3 858.6,258.8 855.9,258.4 853.2,257.8 850.5,257.1 847.9,256.4 845.2,255.5 842.6,254.6 840.1,253.5 837.7,252.2 835.4,250.8 833.1,249.1 831.0,247.4 829.0,245.5 827.1,243.5 825.3,241.4 823.6,239.3 822.0,237.1 820.3,234.9 818.8,232.6 817.3,230.3 815.8,228.0 814.4,225.6 813.0,223.3 811.5,220.9 810.1,218.6 808.7,216.2 807.3,213.8 805.9,211.5 804.3,209.2" />
  <polyline fill="none" stroke="#eab308" stroke-width="5" points="804.3,209.2 802.7,207.0 801.0,204.8 799.3,202.7 797.5,200.6 795.6,198.6 793.7,196.6 791.8,194.7 789.7,192.9 787.6,191.1 785.4,189.5 783.1,187.9 780.8,186.5 778.4,185.1 776.0,183.8 773.5,182.7 770.9,181.8 768.2,181.1 765.5,180.6 762.8,180.3 760.0,180.1 757.3,180.2 754.5,180.5 751.9,181.0 749.2,181.8 746.7,182.9 744.2,184.1 741.8,185.4 739.5,187.0 737.4,188.7 735.4,190.6 733.5,192.5 731.6,194.6 729.8,196.7 728.1,198.9 726.5,201.1 724.9,203.3 723.2,205.5 721.6,207.8 720.1,210.0 718.5,212.3 716.9,214.5 715.4,216.8 713.8,219.1 712.2,221.3 710.7,223.6 709.1,225.9 707.6,228.2" />
  <polyline fill="none" stroke="#9ca3af" stroke-width="2.5" points="707.6,228.2 706.0,230.4 704.5,232.7 702.9,235.0 701.4,237.3 699.8,239.5 698.3,241.8 696.7,244.1 695.2,246.4 693.6,248.6 692.1,250.9 690.5,253.2 689.0,255.5 687.4,257.7 685.9,260.0 684.3,262.3 682.8,264.6 681.2,266.8 679.7,269.1 678.1,271.4 676.5,273.6 675.0,275.9 673.4,278.2 671.8,280.4 670.3,282.7 668.7,285.0 667.1,287.2 665.5,289.5 663.9,291.7 662.4,294.0 660.8,296.2 659.2,298.5 657.6,300.7 656.0,303.0 654.4,305.2 652.8,307.4 651.2,309.7 649.6,311.9 648.0,314.2 646.4,316.4 644.8,318.7" />
  <polyline fill="none" stroke="#22c55e" stroke-width="5" points="644.8,318.7 643.3,320.9 641.7,323.2 640.1,325.4 638.5,327.7 636.9,329.9 635.3,332.2 633.8,334.5 632.2,336.7 630.6,339.0 629.0,341.2 627.5,343.5 625.9,345.7 624.3,348.0 622.7,350.2 621.1,352.5 619.6,354.8 618.0,357.0 616.4,359.3 614.8,361.5 613.2,363.8 611.6,366.0 609.9,368.2 608.3,370.4 606.6,372.6 604.9,374.7 603.1,376.8 601.3,378.9 599.5,381.0 597.6,383.0 595.6,384.9 593.6,386.8 591.6,388.6 589.5,390.4 587.4,392.2 585.2,393.8 582.9,395.5 580.7,397.0 578.3,398.5 576.0,399.9 573.6,401.2 571.1,402.4 568.6,403.6 566.0,404.6 563.5,405.6 560.9,406.4 558.2,407.2 555.5,407.8 552.8,408.4 550.1,408.8 547.4,409.1 544.6,409.3 541.9,409.4 539.1,409.4 536.4,409.3 533.6,409.1 530.9,408.8 528.2,408.3 525.5,407.8 522.8,407.1 520.2,406.4 517.6,405.5 515.0,404.5 512.4,403.4 509.9,402.3 507.5,401.1 505.0,399.8 502.6,398.5 500.2,397.1 497.9,395.6 495.6,394.1 493.5,392.4 491.3,390.6 489.3,388.8 487.3,386.9 485.3,385.0 483.4,383.0 481.6,380.9 479.9,378.8 478.2,376.6 476.6,374.3 475.1,372.0 473.6,369.7 472.2,367.4 470.8,365.0 469.4,362.6 468.0,360.2 466.7,357.8 465.3,355.5 463.9,353.1 462.5,350.7 461.2,348.3 459.8,345.9 458.4,343.6 456.9,341.2 455.5,338.9 454.0,336.5" />
  <polyline fill="none" stroke="#06b6d4" stroke-width="5" points="454.0,336.5 452.6,334.2 451.2,331.8 449.8,329.5 448.4,327.1 446.9,324.8 445.4,322.5 443.9,320.2 442.3,317.9 440.6,315.7 438.9,313.6 437.1,311.5 435.3,309.4 433.4,307.4 431.4,305.5 429.3,303.7 427.1,302.1 424.8,300.6 422.4,299.3 419.8,298.3 417.2,297.5 414.5,296.9 411.8,296.6 409.0,296.6 406.3,296.9 403.6,297.5 401.0,298.3 398.4,299.3 395.9,300.5 393.5,301.8 391.1,303.2 388.9,304.8 386.8,306.5 384.7,308.4 382.7,310.3 380.8,312.2 378.9,314.3 377.2,316.4 375.4,318.5 373.7,320.7 372.1,322.9 370.5,325.1 368.9,327.4 367.2,329.6 365.6,331.8 363.9,334.0 362.3,336.2 360.6,338.4 359.0,340.6 357.4,342.8 355.7,345.0 354.1,347.3 352.5,349.5 350.8,351.7" />
  <polyline fill="none" stroke="#3b82f6" stroke-width="5" points="350.8,351.7 349.2,353.9 347.6,356.2 346.0,358.4 344.3,360.6 342.7,362.8 341.0,365.0 339.4,367.2 337.7,369.4 336.1,371.6 334.5,373.9 332.9,376.1 331.3,378.4 329.8,380.7 328.3,383.0 326.8,385.3 325.3,387.6 323.9,390.0 322.6,392.4 321.2,394.8 319.9,397.2 318.7,399.7 317.6,402.2 316.6,404.8 315.7,407.4 314.9,410.0 314.2,412.7 313.7,415.4 313.3,418.1 313.1,420.8 313.1,423.6 313.1,426.3 313.4,429.1 313.7,431.8 314.2,434.5 314.8,437.2 315.6,439.8 316.4,442.5 317.3,445.1 318.1,447.7 319.0,450.3" />
  <polyline fill="none" stroke="#8b5cf6" stroke-width="5" points="319.0,450.3 320.0,452.8 320.9,455.4 321.8,458.0 322.5,460.7 323.1,463.4 323.5,466.1 323.8,468.8 324.0,471.5 323.9,474.3 323.6,477.0 323.3,479.7 322.8,482.5 322.3,485.2 321.6,487.8 320.9,490.5 319.9,493.1 318.8,495.6 317.6,498.1 316.2,500.4 314.8,502.8 313.2,505.1 311.6,507.3 310.0,509.5 308.2,511.6 306.3,513.6 304.3,515.5 302.3,517.3 300.2,519.2 298.1,520.9 295.9,522.6 293.7,524.2 291.4,525.7 289.0,527.1 286.6,528.5 284.2,529.8 281.7,531.0 279.3,532.1 276.7,533.2 274.2,534.2 271.7,535.3 269.1,536.3 266.6,537.3 264.0,538.3 261.5,539.2 258.9,540.2 256.3,541.1 253.7,542.0 251.1,542.9 248.5,543.7" />
  <polyline fill="none" stroke="#9ca3af" stroke-width="2.5" points="248.5,543.7 245.9,544.6 243.3,545.4 240.6,546.2 238.0,547.0 235.4,547.7 232.7,548.5 230.1,549.2 227.4,549.9 224.8,550.6 222.1,551.2 219.4,551.7 216.7,552.2 214.0,552.7 211.3,553.1 208.6,553.5 205.9,553.9 203.2,554.2 200.5,554.5 197.7,554.8 195.0,555.1 192.3,555.3 189.6,555.6" />
  <polyline fill="none" stroke="#ec4899" stroke-width="5" points="189.6,555.6 186.8,555.9 184.1,556.2 181.4,556.6 178.7,557.0 176.0,557.4 173.3,557.8 170.6,558.2 167.9,558.6 165.2,559.0 162.5,559.5 159.8,560.0 157.1,560.5 154.4,561.0 151.7,561.5 149.0,562.1 146.3,562.7 143.6,563.3 141.0,564.0 138.4,564.7 135.7,565.4 133.1,566.2 130.5,566.9 127.8,567.6 125.2,568.4 122.6,569.2 119.9,570.1 117.3,570.9 114.7,571.8 112.1,572.7 109.6,573.8 107.2,575.1 104.9,576.7 102.9,578.5 101.0,580.6 99.5,582.9 98.2,585.3 97.3,587.9 96.8,590.6 96.8,593.4 97.0,596.1 97.5,598.8 98.3,601.4 99.4,604.0 100.8,606.4 102.4,608.6 104.3,610.5 106.6,612.1 109.1,613.3 111.6,614.4 114.2,615.4 116.8,616.2 119.4,617.0 122.0,617.7 124.7,618.4 127.4,618.9 130.1,619.3 132.8,619.6 135.6,619.8 138.3,619.9 141.1,619.8 143.8,619.6 146.5,619.3 149.2,618.9 151.9,618.4" />
  <polyline fill="none" stroke="#9ca3af" stroke-width="2.5" points="151.9,618.4 154.6,617.8 157.3,617.2 159.9,616.4 162.5,615.6 165.1,614.7 167.7,613.7 170.2,612.7 172.8,611.6 175.3,610.6 177.9,609.5 180.4,608.5 182.9,607.4 185.5,606.4 188.0,605.3 190.5,604.2 193.0,603.1 195.5,602.0 198.0,600.9 200.5,599.8 203.1,598.7 205.6,597.6 208.1,596.5 210.6,595.4 213.1,594.3 215.6,593.2 218.1,592.1 220.7,591.0 223.2,589.9 225.7,588.8 228.2,587.7 230.7,586.6 233.2,585.5 235.7,584.4 238.3,583.3 240.8,582.2 243.3,581.1 245.8,580.0 248.3,578.9" />
  <polyline fill="none" stroke="#14b8a6" stroke-width="5" points="248.3,578.9 250.8,577.7 253.3,576.6 255.8,575.5 258.3,574.4 260.9,573.3 263.4,572.2 265.9,571.1 268.4,570.0 270.9,568.9 273.5,567.8 276.0,566.7 278.5,565.6 280.9,564.4 283.4,563.2 285.8,561.9 288.2,560.6 290.7,559.3 293.1,558.0 295.5,556.7 297.9,555.3 300.2,553.9 302.6,552.4 304.9,551.0 307.2,549.4 309.4,547.8 311.6,546.2 313.8,544.6 316.0,542.9 318.1,541.2 320.3,539.4 322.3,537.6 324.4,535.7 326.3,533.8 328.3,531.9 330.1,529.8 332.0,527.8 333.8,525.7 335.5,523.5 337.2,521.3 338.8,519.1 340.3,516.8 341.7,514.5 343.1,512.1 344.4,509.7 345.7,507.2 346.9,504.7 348.0,502.2 349.1,499.7 350.1,497.1 351.1,494.6 352.0,492.0 352.8,489.3 353.6,486.7 354.4,484.1 355.1,481.4 355.8,478.8 356.5,476.1 357.1,473.4 357.7,470.7 358.3,468.0 358.8,465.3 359.3,462.6 359.7,459.9 360.2,457.2 360.6,454.4 361.0,451.7 361.4,449.0 361.8,446.3 362.2,443.5 362.6,440.8 363.0,438.1 363.4,435.4" />
  <polyline fill="none" stroke="#f43f5e" stroke-width="5" points="363.4,435.4 363.7,432.6 364.1,429.9 364.4,427.2 364.8,424.5 365.2,421.7 365.6,419.0 366.1,416.3 366.6,413.6 367.2,410.9 367.7,408.2 368.3,405.5 369.0,402.9 369.7,400.2 370.6,397.6 371.4,395.0 372.4,392.4 373.4,389.8 374.5,387.3 375.7,384.8 376.9,382.3 378.4,380.0 380.0,377.8 381.8,375.7 383.8,373.8 385.9,372.1 388.3,370.6 390.8,369.5 393.4,368.6 396.1,368.1 398.9,368.0 401.6,368.3 404.3,368.8 406.9,369.6 409.5,370.7 411.8,372.1 414.1,373.6 416.3,375.3 418.3,377.2 420.1,379.2 421.9,381.4 423.4,383.6 424.9,386.0 426.2,388.4 427.6,390.8 428.9,393.2 430.1,395.6 431.4,398.1 432.8,400.4 434.2,402.8 435.6,405.2 437.0,407.6 438.4,409.9 439.9,412.2 441.5,414.5 443.0,416.8 444.7,419.0 446.3,421.2 448.1,423.3 449.9,425.4" />
  <polyline fill="none" stroke="#ef4444" stroke-width="5" points="449.9,425.4 451.7,427.4 453.7,429.4 455.6,431.3 457.6,433.3 459.6,435.1 461.6,437.0 463.7,438.8 465.8,440.6 467.9,442.3 470.0,444.1 472.1,445.9 474.3,447.6 476.4,449.3 478.6,451.0 480.7,452.8 482.8,454.5 484.9,456.3 487.0,458.1 489.0,460.0 490.9,462.0 492.7,464.1 494.4,466.3 495.9,468.6 497.4,470.9 498.7,473.3 499.8,475.8 500.9,478.4 501.8,481.0 502.6,483.6 503.3,486.3 503.8,489.0 504.1,491.7 504.5,494.4 504.8,497.2 505.1,499.9 505.3,502.7 505.6,505.4 505.7,508.1 505.8,510.9 505.8,513.6 505.9,516.4 505.9,519.1 505.9,521.9 505.9,524.6 505.9,527.4 505.9,530.1 505.9,532.9 505.9,535.6 505.9,538.4 505.9,541.1 506.0,543.9 506.0,546.7 506.1,549.4 506.2,552.2 506.2,554.9" />
  <polyline fill="none" stroke="#f97316" stroke-width="5" points="506.2,554.9 506.3,557.7 506.4,560.4 506.6,563.2 506.7,565.9 506.8,568.7 507.0,571.4 507.2,574.2 507.4,576.9 507.6,579.7 507.8,582.4 508.0,585.1 508.3,587.9 508.6,590.6 509.1,593.3 509.6,596.0 510.4,598.7 511.5,601.2 513.0,603.5 514.6,605.7 516.5,607.7 518.7,609.4 521.1,610.7 523.7,611.6 526.4,612.2 529.1,612.4 531.9,612.3 534.6,611.9 537.3,611.2 539.9,610.3 542.4,609.2 544.8,607.8 547.0,606.2 549.2,604.5 551.2,602.7 553.2,600.7 555.0,598.7 556.9,596.7 558.7,594.6 560.6,592.6 562.4,590.5 564.2,588.5 566.0,586.4 567.8,584.3 569.6,582.2 571.4,580.1 573.2,578.0 574.9,575.9 576.7,573.8" />
  <polyline fill="none" stroke="#9ca3af" stroke-width="2.5" points="576.7,573.8 578.5,571.7 580.3,569.6 582.1,567.5 583.9,565.4 585.7,563.3 587.5,561.2 589.3,559.1 591.1,557.1 592.9,555.0 594.7,552.9 596.5,550.8 598.3,548.8 600.1,546.7 601.9,544.6 603.8,542.6 605.6,540.5 607.4,538.4 609.2,536.4 611.1,534.3 612.9,532.2 614.7,530.2 616.5,528.1 618.4,526.1 620.2,524.0 622.0,522.0 623.9,519.9 625.7,517.8" />
  <line x1="718.0" y1="420.4" x2="744.0" y2="419.5" stroke="#d1d5db" stroke-width="1" />
  <text x="744.0" y="419.5" text-anchor="start" class="name" fill="#6b7280">St1 480m</text>
  <line x1="894.6" y1="303.7" x2="919.4" y2="296.0" stroke="#d1d5db" stroke-width="1" />
  <text x="919.4" y="296.0" text-anchor="start" class="name" fill="#111827">T1</text>
  <line x1="825.3" y1="241.4" x2="847.9" y2="228.6" stroke="#d1d5db" stroke-width="1" />
  <text x="847.9" y="228.6" text-anchor="start" class="name" fill="#111827">T2</text>
  <line x1="751.9" y1="181.0" x2="770.5" y2="162.9" stroke="#d1d5db" stroke-width="1" />
  <text x="770.5" y="162.9" text-anchor="start" class="name" fill="#111827">T3</text>
  <line x1="676.5" y1="273.6" x2="696.2" y2="256.6" stroke="#d1d5db" stroke-width="1" />
  <text x="696.2" y="256.6" text-anchor="start" class="name" fill="#6b7280">St2 200m</text>
  <line x1="552.8" y1="408.4" x2="577.3" y2="399.6" stroke="#d1d5db" stroke-width="1" />
  <text x="577.3" y="399.6" text-anchor="start" class="name" fill="#111827">T4</text>
  <line x1="401.0" y1="298.3" x2="385.4" y2="277.5" stroke="#d1d5db" stroke-width="1" />
  <text x="385.4" y="277.5" text-anchor="end" class="name" fill="#111827">T5</text>
  <line x1="319.9" y1="397.2" x2="294.3" y2="392.8" stroke="#d1d5db" stroke-width="1" />
  <text x="294.3" y="392.8" text-anchor="end" class="name" fill="#111827">T6</text>
  <line x1="308.2" y1="511.6" x2="284.4" y2="522.1" stroke="#d1d5db" stroke-width="1" />
  <text x="284.4" y="522.1" text-anchor="end" class="name" fill="#111827">T7</text>
  <line x1="219.4" y1="551.7" x2="195.7" y2="562.3" stroke="#d1d5db" stroke-width="1" />
  <text x="195.7" y="562.3" text-anchor="end" class="name" fill="#6b7280">St3 113m</text>
  <line x1="104.9" y1="576.7" x2="80.6" y2="585.9" stroke="#d1d5db" stroke-width="1" />
  <text x="80.6" y="585.9" text-anchor="end" class="name" fill="#111827">T8</text>
  <line x1="200.5" y1="599.8" x2="178.0" y2="612.8" stroke="#d1d5db" stroke-width="1" />
  <text x="178.0" y="612.8" text-anchor="end" class="name" fill="#6b7280">St4 193m</text>
  <line x1="332.0" y1="527.8" x2="309.7" y2="541.2" stroke="#d1d5db" stroke-width="1" />
  <text x="309.7" y="541.2" text-anchor="end" class="name" fill="#111827">T9</text>
  <line x1="396.1" y1="368.1" x2="373.7" y2="354.9" stroke="#d1d5db" stroke-width="1" />
  <text x="373.7" y="354.9" text-anchor="end" class="name" fill="#111827">T10</text>
  <line x1="500.9" y1="478.4" x2="502.4" y2="504.3" stroke="#d1d5db" stroke-width="1" />
  <text x="502.4" y="504.3" text-anchor="start" class="name" fill="#111827">T11</text>
  <line x1="526.4" y1="612.2" x2="530.4" y2="637.9" stroke="#d1d5db" stroke-width="1" />
  <text x="530.4" y="637.9" text-anchor="start" class="name" fill="#111827">T12</text>
  <line x1="601.9" y1="544.6" x2="619.3" y2="564.0" stroke="#d1d5db" stroke-width="1" />
  <text x="619.3" y="564.0" text-anchor="start" class="name" fill="#6b7280">St5 140m</text>

  <rect x="622.1" y="511.2" width="10" height="10" fill="#111827" />
  <text x="639.1" y="520.2" class="sub">S/F</text>
  <text class="title" x="12" y="22">Kyalami Grand Prix Circuit — acc</text>
  <text class="sub" x="12" y="40">12 corners, 5 straights, 17 segments, 4.455 km</text>
</svg>