<?xml version="1.0" encoding="UTF-8"?>
<svg xmlns="http://www.w3.org/2000/svg" width="1000" height="800" viewBox="0 0 1000 800">
  <defs>
    <style>
      .name { font-family: monospace; font-size: 12px; }
      .sector { font-family: monospace; font-size: 12px; fill: #7c3aed; font-weight: bold; }
      .title { font-family: monospace; font-size: 14px; fill: #111827; font-weight: bold; }
      .sub { font-family: monospace; font-size: 11px; fill: #6b7280; }
    </style>
  </defs>
  <rect width="1000" height="800" fill="#ffffff" />
  <polyline fill="none" stroke="#9ca3af" stroke-width="2.5" points="616.4,146.4 618.2,146.4 620.1,146.4 622.0,146.4 623.9,146.4 625.8,146.4 627.7,146.4 629.5,146.4 631.4,146.4 633.3,146.4 635.2,146.4 637.1,146.4 638.9,146.4 640.8,146.4 642.7,146.4 644.6,146.4 646.5,146.3 648.4,146.3 650.2,146.3 652.1,146.3 654.0,146.3 655.9,146.3 657.8,146.3 659.6,146.3 661.5,146.3 663.4,146.3 665.3,146.3 667.2,146.3 669.0,146.3 670.9,146.2 672.8,146.2 674.7,146.2 676.6,146.2 678.5,146.2 680.3,146.2 682.2,146.2 684.1,146.2 686.0,146.2 687.9,146.2 689.7,146.2 691.6,146.2 693.5,146.2 695.4,146.2 697.3,146.2 699.1,146.2 701.0,146.1 702.9,146.1 704.8,146.1 706.7,146.1 708.6,146.1 710.4,146.1 712.3,146.1 714.2,146.1 716.1,146.0 718.0,146.0 719.8,146.0 721.7,146.0 723.6,146.0 725.5,146.0 727.4,146.0 729.3,145.9" />
  <polyline fill="none" stroke="#ef4444" stroke-width="5" points="729.3,145.9 731.1,145.9 733.0,145.9 734.9,145.9 736.8,145.9 738.7,145.9 740.5,145.8 742.4,145.8 744.3,145.8 746.2,145.8 748.1,145.8 749.9,145.8 751.8,145.8 753.7,145.8 755.6,145.8 757.5,145.8 759.4,145.8 761.2,145.8 763.1,145.8 765.0,145.8 766.9,145.8 768.8,145.8 770.6,145.8 772.5,145.8 774.4,145.8 776.3,145.8 778.2,145.8 780.0,145.8 781.9,145.8 783.8,145.8 785.7,145.9 787.6,145.9 789.5,145.9 791.3,145.9 793.2,145.9 795.1,145.9 797.0,145.9 798.9,145.9 800.7,145.9 802.6,145.9 804.5,145.9 806.4,145.9 808.3,145.9 810.2,146.0 812.0,146.0 813.9,146.0 815.8,146.0 817.7,146.0 819.6,146.1 821.4,146.1 823.3,146.2 825.2,146.3 827.1,146.4 828.9,146.5 830.8,146.7 832.7,146.8 834.6,146.9 836.5,147.1 838.3,147.4 840.2,147.7 842.0,148.0 843.9,148.4 845.7,148.8 847.5,149.3 849.3,149.8 851.1,150.4 852.9,151.1 854.6,151.8 856.3,152.6 858.0,153.4 859.7,154.3 861.3,155.2 862.9,156.1 864.5,157.1 866.1,158.2 867.7,159.2 869.2,160.3 870.8,161.4 872.3,162.5 873.8,163.6 875.2,164.8 876.7,166.0 878.1,167.3 879.5,168.5 880.8,169.8 882.2,171.1 883.5,172.5 884.7,173.9 885.9,175.3 887.1,176.8 888.3,178.3 889.4,179.8 890.5,181.3 891.5,182.9 892.5,184.5 893.5,186.1 894.4,187.7 895.3,189.4 896.1,191.1 896.9,192.8 897.7,194.5 898.4,196.3 899.1,198.0 899.7,199.8 900.3,201.6 900.9,203.4 901.4,205.2 901.9,207.0 902.3,208.8 902.6,210.7 902.8,212.5 903.0,214.4 903.1,216.3 903.2,218.2 903.2,220.1 903.2,221.9 903.1,223.8 903.0,225.7 902.9,227.6 902.7,229.4 902.5,231.3 902.3,233.2 902.1,235.1 901.9,236.9 901.6,238.8 901.4,240.7 901.0,242.5 900.7,244.4 900.3,246.2 899.9,248.0 899.4,249.9 899.0,251.7 898.4,253.5 897.8,255.2 897.1,257.0 896.4,258.7 895.6,260.5 894.8,262.1 893.9,263.8 893.0,265.4 892.0,267.0 890.9,268.6 889.8,270.1 888.7,271.6 887.5,273.1 886.3,274.6 885.1,275.9 883.8,277.3 882.4,278.6 881.1,279.9 879.7,281.2 878.2,282.4 876.8,283.6 875.2,284.7 873.7,285.8 872.1,286.8 870.5,287.8 868.9,288.7 867.3,289.6 865.6,290.5 863.9,291.3 862.2,292.0 860.4,292.8 858.7,293.4 856.9,294.0 855.0,294.5 853.2,294.8 851.3,295.2 849.5,295.4 847.6,295.6 845.7,295.7 843.9,295.8 842.0,295.9 840.1,296.0 838.2,296.0 836.3,296.0 834.5,296.0 832.6,295.9 830.7,295.8 828.8,295.7 826.9,295.5 825.1,295.3 823.2,295.1 821.3,294.8 819.5,294.6 817.6,294.3 815.8,294.0 813.9,293.7 812.1,293.4 810.2,293.0 808.4,292.7 806.5,292.4 804.7,292.0 802.8,291.7 800.9,291.4 799.1,291.1 797.2,290.8 795.4,290.5 793.5,290.2 791.7,289.9 789.8,289.6 787.9,289.3 786.1,289.0" />
  <polyline fill="none" stroke="#f97316" stroke-width="5" points="786.1,289.0 784.2,288.7 782.4,288.4 780.5,288.2 778.6,287.9 776.8,287.7 774.9,287.4 773.0,287.2 771.2,287.0 769.3,286.7 767.4,286.5 765.6,286.2 763.7,286.0 761.8,285.8 760.0,285.6 758.1,285.4 756.2,285.2 754.4,285.0 752.5,284.8 750.6,284.6 748.7,284.4 746.9,284.3 745.0,284.1 743.1,284.0 741.2,283.9 739.4,283.8 737.5,283.7 735.6,283.7 733.7,283.6 731.8,283.7 729.9,283.7 728.1,283.7 726.2,283.8 724.3,283.9 722.4,284.1 720.6,284.3 718.7,284.6 716.9,285.0 715.0,285.4 713.2,285.8 711.4,286.3 709.6,286.9 707.8,287.5 706.1,288.2 704.3,288.9 702.6,289.7 700.9,290.6 699.3,291.5 697.7,292.4 696.1,293.4 694.5,294.5 693.0,295.5 691.4,296.6 690.0,297.8 688.5,299.0 687.1,300.2 685.7,301.5 684.4,302.8 683.1,304.2 681.8,305.6 680.6,307.0 679.3,308.4 678.2,309.9 677.0,311.4 676.0,312.9 674.9,314.5 673.9,316.1 672.9,317.7 672.0,319.4 671.2,321.0 670.4,322.7 669.6,324.5 668.9,326.2 668.3,328.0 667.7,329.8 667.2,331.6 666.8,333.4 666.3,335.2 666.0,337.1 665.8,339.0 665.6,340.8 665.5,342.7 665.5,344.6 665.5,346.5 665.6,348.3 665.7,350.2 665.9,352.1 666.2,354.0 666.5,355.8 666.9,357.6 667.4,359.5 667.8,361.3 668.4,363.1 669.0,364.9 669.6,366.6 670.3,368.4 671.0,370.1 671.8,371.9 672.6,373.6 673.4,375.3 674.2,377.0 675.0,378.7 675.8,380.4 676.6,382.0 677.5,383.7 678.3,385.4 679.2,387.1 680.1,388.7 681.0,390.4 681.8,392.1 682.7,393.7 683.6,395.4" />
  <polyline fill="none" stroke="#eab308" stroke-width="5" points="683.6,395.4 684.5,397.0 685.4,398.7 686.3,400.3 687.2,402.0 688.1,403.6 689.0,405.3 689.9,407.0 690.8,408.6 691.6,410.3 692.4,412.0 693.1,413.7 693.9,415.5 694.6,417.2 695.2,419.0 695.9,420.7 696.5,422.5 697.1,424.3 697.6,426.1 698.0,428.0 698.4,429.8 698.7,431.7 698.9,433.5 699.1,435.4 699.2,437.3 699.1,439.2 699.0,441.0 698.9,442.9 698.6,444.8 698.4,446.6 698.1,448.5 697.7,450.3 697.2,452.2 696.7,454.0 696.1,455.7 695.4,457.5 694.7,459.2 693.9,460.9 693.1,462.6 692.2,464.3 691.3,465.9 690.3,467.5 689.3,469.1 688.3,470.7 687.2,472.3 686.2,473.8 685.1,475.4 683.9,476.9 682.8,478.4 681.7,479.9 680.5,481.3 679.3,482.8 678.1,484.2 676.9,485.7 675.6,487.1 674.4,488.5 673.1,489.9 671.8,491.2 670.5,492.6 669.3,494.0 668.0,495.4 666.7,496.7 665.4,498.1 664.1,499.5 662.8,500.8 661.5,502.2 660.2,503.5 658.9,504.9 657.5,506.2 656.2,507.5 654.9,508.9 653.5,510.2 652.2,511.5 650.9,512.8 649.5,514.1 648.2,515.4 646.8,516.7 645.4,518.0 644.0,519.3 642.6,520.5 641.2,521.8 639.8,523.0" />
  <polyline fill="none" stroke="#9ca3af" stroke-width="2.5" points="639.8,523.0 638.4,524.3 637.0,525.6 635.6,526.8 634.2,528.0 632.7,529.2 631.3,530.4 629.8,531.6 628.4,532.8 626.9,534.0 625.4,535.2 623.9,536.3 622.4,537.4 620.9,538.5 619.4,539.6 617.8,540.7 616.3,541.7 614.7,542.8 613.1,543.7 611.5,544.7 609.9,545.7 608.2,546.6 606.6,547.6 605.0,548.5 603.3,549.4 601.7,550.3 600.0,551.2 598.3,552.1 596.7,552.9 595.0,553.8 593.3,554.6 591.6,555.4 589.9,556.2 588.2,557.0 586.5,557.8 584.7,558.5 583.0,559.3 581.3,560.0 579.5,560.7 577.8,561.4 576.0,562.0 574.3,562.7 572.5,563.3 570.7,563.9 568.9,564.5 567.1,565.1 565.3,565.7 563.5,566.2 561.7,566.8 559.9,567.3 558.1,567.8 556.3,568.3 554.5,568.8 552.7,569.3 550.9,569.8 549.1,570.3 547.2,570.8 545.4,571.3 543.6,571.8 541.8,572.3 540.0,572.9 538.2,573.4 536.4,573.9 534.6,574.5 532.8,575.0 531.0,575.6 529.2,576.2 527.4,576.7 525.6,577.3 523.9,578.0 522.1,578.6 520.3,579.2 518.6,579.9 516.8,580.6 515.1,581.3" />
  <polyline fill="none" stroke="#22c55e" stroke-width="5" points="515.1,581.3 513.3,582.0 511.6,582.7 509.8,583.4 508.1,584.2 506.4,585.0 504.7,585.7 503.0,586.5 501.3,587.3 499.6,588.1 497.9,588.9 496.2,589.8 494.5,590.6 492.8,591.4 491.1,592.3 489.5,593.2 487.8,594.0 486.1,594.9 484.5,595.8 482.8,596.7 481.1,597.5 479.5,598.4 477.8,599.4 476.2,600.3 474.6,601.2 472.9,602.1 471.3,603.0 469.6,604.0 468.0,604.9 466.4,605.8 464.7,606.8 463.1,607.7 461.5,608.6 459.9,609.6 458.2,610.5 456.6,611.5 455.0,612.4 453.3,613.4 451.7,614.3 450.1,615.3 448.5,616.2 446.9,617.2 445.3,618.2 443.6,619.1 442.0,620.1 440.4,621.1 438.8,622.1 437.2,623.0 435.6,624.0 434.0,625.0 432.4,625.9 430.8,626.9 429.1,627.9 427.5,628.8 425.9,629.8 424.3,630.7 422.7,631.7 421.0,632.6 419.4,633.6 417.8,634.5 416.1,635.4 414.5,636.4 412.8,637.3 411.2,638.1 409.5,639.0 407.8,639.9 406.2,640.7 404.5,641.6 402.8,642.4 401.1,643.2 399.4,644.0 397.7,644.8 396.0,645.6 394.3,646.4 392.5,647.1 390.8,647.8 389.0,648.5 387.3,649.1 385.5,649.7 383.7,650.3 381.9,650.9 380.1,651.4 378.3,651.9 376.4,652.3 374.6,652.7 372.7,653.0 370.9,653.3 369.0,653.6 367.2,653.8 365.3,654.0 363.4,654.1 361.5,654.2 359.7,654.2 357.8,654.2 355.9,654.2 354.0,654.2 352.1,654.1 350.3,654.0 348.4,653.8 346.5,653.6 344.7,653.4 342.8,653.0 341.0,652.7 339.1,652.2 337.3,651.7 335.5,651.2 333.7,650.6 332.0,650.0 330.2,649.3 328.5,648.6 326.8,647.8 325.1,647.0 323.4,646.1 321.8,645.2 320.2,644.3 318.5,643.3 317.0,642.4 315.4,641.4 313.8,640.4 312.3,639.3 310.7,638.3 309.2,637.3 307.7,636.2 306.1,635.2 304.6,634.1 303.1,633.1 301.5,632.0 300.0,630.9 298.5,629.8 297.0,628.7 295.5,627.6 294.0,626.5 292.5,625.4 291.0,624.3 289.5,623.1 288.1,622.0 286.6,620.8 285.1,619.7 283.6,618.5 282.2,617.3 280.7,616.2 279.2,615.0 277.8,613.8 276.3,612.6 274.9,611.4 273.4,610.2 272.0,609.0 270.5,607.8 269.1,606.6 267.7,605.3 266.3,604.1 264.9,602.8 263.5,601.6 262.1,600.3 260.7,599.1 259.3,597.8 257.9,596.5 256.6,595.2 255.2,593.9 253.8,592.6 252.4,591.4 251.0,590.1 249.7,588.8 248.3,587.5 246.9,586.3 245.5,585.0 244.1,583.8 242.6,582.6 241.2,581.3 239.8,580.1 238.4,578.9 236.9,577.7 235.5,576.5 234.0,575.2 232.6,574.0 231.2,572.8 229.7,571.6 228.3,570.4 226.8,569.2 225.4,568.0 223.9,566.8 222.5,565.6 221.0,564.4 219.6,563.2 218.1,562.0" />
  <polyline fill="none" stroke="#06b6d4" stroke-width="5" points="218.1,562.0 216.7,560.8 215.2,559.6 213.8,558.4 212.3,557.2 210.9,556.0 209.4,554.8 208.0,553.6 206.5,552.4 205.1,551.2 203.6,550.1 202.1,548.9 200.6,547.8 199.1,546.6 197.7,545.4 196.2,544.3 194.7,543.1 193.2,542.0 191.8,540.8 190.3,539.6 188.8,538.5 187.3,537.3 185.8,536.1 184.4,535.0 182.9,533.8 181.4,532.6 179.9,531.5 178.5,530.3 177.0,529.1 175.5,527.9 174.1,526.8 172.6,525.6 171.1,524.4 169.6,523.2 168.2,522.1 166.7,520.9 165.3,519.7 163.8,518.5 162.3,517.3 160.9,516.1 159.4,515.0 157.9,513.8 156.5,512.6 155.0,511.4 153.6,510.2 152.2,509.0 150.7,507.8 149.3,506.5 147.8,505.3 146.4,504.1 145.0,502.9 143.5,501.7 142.1,500.5 140.7,499.2 139.2,498.0 137.8,496.8 136.4,495.6 135.0,494.3 133.5,493.1 132.1,491.9 130.7,490.6 129.3,489.4 127.9,488.1 126.5,486.9 125.1,485.6 123.7,484.4 122.3,483.1 120.9,481.8 119.6,480.5 118.2,479.2 116.9,477.8 115.7,476.4 114.4,475.0 113.3,473.6 112.1,472.1 110.9,470.6 109.8,469.1 108.8,467.5 107.8,465.9 106.8,464.3 105.9,462.7 105.0,461.0 104.2,459.3 103.4,457.6 102.7,455.9 102.0,454.1 101.4,452.3 100.8,450.5 100.3,448.7 99.9,446.9 99.4,445.1 99.0,443.2 98.7,441.4 98.3,439.5 98.0,437.7 97.7,435.8 97.5,434.0 97.3,432.1 97.1,430.2 96.9,428.3 96.8,426.5 96.8,424.6 96.8,422.7 96.8,420.8 96.9,418.9 97.0,417.1 97.2,415.2 97.3,413.3 97.6,411.4 97.9,409.6 98.2,407.7 98.5,405.9 98.9,404.0 99.3,402.2 99.8,400.4 100.3,398.6 100.8,396.8 101.3,395.0 101.9,393.1 102.4,391.3 102.9,389.5 103.4,387.7 104.0,385.9 104.5,384.1 105.1,382.3 105.6,380.5 106.2,378.7 106.7,376.9 107.3,375.1 107.8,373.3 108.5,371.6 109.1,369.8 109.7,368.0 110.3,366.2 110.9,364.4 111.5,362.7 112.1,360.9 112.7,359.1 113.3,357.3 114.0,355.5 114.6,353.8 115.2,352.0 115.8,350.2 116.4,348.4 117.1,346.7 117.7,344.9 118.3,343.1 119.0,341.4 119.6,339.6 120.3,337.8 120.9,336.1 121.5,334.3 122.2,332.5 122.8,330.7 123.4,329.0 124.1,327.2 124.7,325.4 125.3,323.7 126.0,321.9 126.6,320.1 127.2,318.3 127.8,316.6 128.4,314.8 129.0,313.0 129.7,311.2 130.3,309.5 130.9,307.7 131.5,305.9 132.1,304.1 132.8,302.4" />
  <polyline fill="none" stroke="#3b82f6" stroke-width="5" points="132.8,302.4 133.4,300.6 134.0,298.8 134.6,297.0 135.2,295.3 135.8,293.5 136.5,291.7 137.1,290.0 137.7,288.2 138.3,286.4 139.0,284.7 139.6,282.9 140.2,281.1 140.9,279.4 141.6,277.6 142.2,275.9 142.9,274.1 143.6,272.4 144.2,270.6 144.9,268.9 145.6,267.1 146.3,265.4 147.0,263.7 147.6,261.9 148.3,260.2 149.0,258.4 149.7,256.7 150.4,255.0 151.1,253.2 151.8,251.5 152.5,249.8 153.2,248.1 153.9,246.3 154.6,244.6 155.4,242.9 156.1,241.2 156.8,239.4 157.5,237.7 158.2,236.0 159.0,234.3 159.7,232.5 160.4,230.8 161.1,229.1 161.9,227.4 162.7,225.7 163.4,224.0 164.2,222.3 164.9,220.5 165.7,218.8 166.5,217.1 167.2,215.4 168.0,213.7 168.7,211.9 169.5,210.2 170.3,208.5 171.0,206.8 171.9,205.1 172.7,203.4 173.5,201.7 174.4,200.1 175.3,198.4 176.3,196.8 177.3,195.2 178.3,193.6 179.3,192.1 180.4,190.5 181.6,189.0 182.7,187.6 183.9,186.1 185.1,184.7 186.3,183.2 187.6,181.9 188.9,180.5 190.3,179.2 191.6,177.9 193.1,176.6 194.5,175.4 195.9,174.2 197.4,173.0 198.9,171.8 200.4,170.7 201.9,169.6 203.4,168.5 204.9,167.4 206.5,166.4 208.1,165.4 209.7,164.4 211.3,163.4 212.9,162.5 214.6,161.5 216.2,160.6 217.9,159.7 219.5,158.9 221.2,158.0 222.9,157.2 224.6,156.4 226.4,155.7 228.1,154.9 229.8,154.2 231.6,153.5 233.3,152.8 235.1,152.2 236.9,151.6 238.7,151.0 240.5,150.5 242.3,150.0 244.1,149.5 245.9,149.1 247.8,148.7 249.6,148.3 251.5,148.0 253.3,147.8 255.2,147.6 257.1,147.4 259.0,147.2 260.8,147.0 262.7,146.8 264.6,146.7 266.5,146.5 268.3,146.4 270.2,146.3 272.1,146.2 274.0,146.1 275.8,146.1 277.7,146.0 279.6,145.9 281.5,145.9 283.4,145.9 285.2,145.8 287.1,145.8 289.0,145.8 290.9,145.8 292.8,145.8 294.7,145.8 296.5,145.8 298.4,145.8 300.3,145.8 302.2,145.9 304.1,145.9 305.9,145.9 307.8,145.9 309.7,145.9 311.6,146.0 313.5,146.0 315.3,146.0 317.2,146.0 319.1,146.0 321.0,146.0 322.9,146.0 324.8,146.0 326.6,146.1 328.5,146.1 330.4,146.1 332.3,146.1" />
  <polyline fill="none" stroke="#9ca3af" stroke-width="2.5" points="332.3,146.1 334.2,146.1 336.0,146.1 337.9,146.1 339.8,146.2 341.7,146.2 343.6,146.2 345.4,146.2 347.3,146.2 349.2,146.2 351.1,146.3 353.0,146.3 354.9,146.3 356.7,146.3 358.6,146.3 360.5,146.3 362.4,146.4 364.3,146.4 366.1,146.4 368.0,146.4 369.9,146.4 371.8,146.4 373.7,146.5 375.5,146.5 377.4,146.5 379.3,146.5 381.2,146.5 383.1,146.5 385.0,146.5 386.8,146.6 388.7,146.6 390.6,146.6 392.5,146.6 394.4,146.6 396.2,146.6 398.1,146.6 400.0,146.6 401.9,146.6 403.8,146.6 405.6,146.6 407.5,146.6 409.4,146.6 411.3,146.6 413.2,146.6 415.1,146.6 416.9,146.6 418.8,146.6 420.7,146.6 422.6,146.6 424.5,146.6 426.3,146.6 428.2,146.6 430.1,146.6 432.0,146.6 433.9,146.6 435.8,146.5 437.6,146.5 439.5,146.5 441.4,146.5 443.3,146.5 445.2,146.5 447.0,146.5 448.9,146.5 450.8,146.5 452.7,146.5 454.6,146.5 456.4,146.5 458.3,146.5 460.2,146.5 462.1,146.5 464.0,146.5 465.9,146.5 467.7,146.5 469.6,146.5 471.5,146.6 473.4,146.6 475.3,146.6 477.1,146.6 479.0,146.6 480.9,146.6 482.8,146.6 484.7,146.6 486.6,146.6 488.4,146.6 490.3,146.6 492.2,146.6 494.1,146.6 496.0,146.6 497.8,146.6 499.7,146.6 501.6,146.6 503.5,146.6 505.4,146.6 507.2,146.6 509.1,146.6 511.0,146.6 512.9,146.6 514.8,146.6 516.7,146.6 518.5,146.6 520.4,146.5 522.3,146.5 524.2,146.5 526.1,146.5 527.9,146.5 529.8,146.5 531.7,146.5 533.6,146.5 535.5,146.5 537.3,146.5 539.2,146.5 541.1,146.5 543.0,146.5 544.9,146.5 546.8,146.5 548.6,146.5 550.5,146.5 552.4,146.5 554.3,146.5 556.2,146.5 558.0,146.5 559.9,146.5 561.8,146.5 563.7,146.5 565.6,146.5 567.5,146.5 569.3,146.5 571.2,146.5 573.1,146.5 575.0,146.5 576.9,146.5 578.7,146.5 580.6,146.5 582.5,146.5 584.4,146.5 586.3,146.5 588.1,146.5 590.0,146.5 591.9,146.5 593.8,146.5 595.7,146.5 597.6,146.5 599.4,146.5 601.3,146.5 603.2,146.5 605.1,146.5 607.0,146.5 608.8,146.4 610.7,146.4 612.6,146.4 614.5,146.4" />
  <line x1="672.8" y1="146.2" x2="690.6" y2="127.2" stroke="#d1d5db" stroke-width="1" />
  <text x="690.6" y="127.2" text-anchor="start" class="name" fill="#6b7280">Sam Posey Straight</text>
  <line x1="898.4" y1="196.3" x2="922.9" y2="187.5" stroke="#d1d5db" stroke-width="1" />
  <text x="922.9" y="187.5" text-anchor="end" class="name" fill="#111827">T1 Big Bend</text>
  <line x1="687.1" y1="300.2" x2="712.5" y2="294.8" stroke="#d1d5db" stroke-width="1" />
  <text x="712.5" y="294.8" text-anchor="start" class="name" fill="#111827">T2 The Esses</text>
  <line x1="690.3" y1="467.5" x2="712.4" y2="481.3" stroke="#d1d5db" stroke-width="1" />
  <text x="712.4" y="481.3" text-anchor="start" class="name" fill="#111827">T3</text>
  <line x1="581.3" y1="560.0" x2="591.4" y2="583.9" stroke="#d1d5db" stroke-width="1" />
  <text x="591.4" y="583.9" text-anchor="start" class="name" fill="#6b7280">No Name Straight</text>
  <line x1="359.7" y1="654.2" x2="349.7" y2="678.2" stroke="#d1d5db" stroke-width="1" />
  <text x="349.7" y="678.2" text-anchor="end" class="name" fill="#111827">T4 Uphill</text>
  <line x1="102.0" y1="454.1" x2="77.0" y2="461.3" stroke="#d1d5db" stroke-width="1" />
  <text x="77.0" y="461.3" text-anchor="start" class="name" fill="#111827">T5 West Bend</text>
  <line x1="195.9" y1="174.2" x2="173.4" y2="161.2" stroke="#d1d5db" stroke-width="1" />
  <text x="173.4" y="161.2" text-anchor="end" class="name" fill="#111827">T6 Downhill</text>
  <line x1="473.4" y1="146.6" x2="471.3" y2="120.6" stroke="#d1d5db" stroke-width="1" />
  <text x="471.3" y="120.6" text-anchor="end" class="name" fill="#6b7280">Sam Posey Straight</text>
  <circle cx="639.8" cy="523.0" r="7" fill="none" stroke="#7c3aed" stroke-width="2.5" />
  <text x="650.8" y="515.0" class="sector">S1 0.384</text>
  <circle cx="132.8" cy="302.4" r="7" fill="none" stroke="#7c3aed" stroke-width="2.5" />
  <text x="143.8" y="294.4" class="sector">S2 0.744</text>
  <rect x="611.4" y="141.4" width="10" height="10" fill="#111827" />
  <text x="628.4" y="150.4" class="sub">S/F</text>
  <text class="title" x="12" y="22">Lime Rock Park — fm-2023</text>
  <text class="sub" x="12" y="40">6 corners, 3 straights, 9 segments, 2.366 km</text>
</svg>